<svg width="34" height="34" viewBox="0 0 34 34" fill="none" xmlns="http://www.w3.org/2000/svg">
<g clip-path="url(#clip0_367_34)">
<path d="M8.50016 26.9167C8.50016 28.475 9.77516 29.75 11.3335 29.75H22.6668C24.2252 29.75 25.5002 28.475 25.5002 26.9167V9.91667H8.50016V26.9167ZM11.9852 16.83L13.9827 14.8325L17.0002 17.8358L20.0035 14.8325L22.001 16.83L18.9977 19.8333L22.001 22.8367L20.0035 24.8342L17.0002 21.8308L13.9968 24.8342L11.9993 22.8367L15.0027 19.8333L11.9852 16.83ZM21.9585 5.66667L20.5418 4.25H13.4585L12.0418 5.66667H7.0835V8.5H26.9168V5.66667H21.9585Z" fill="#C7402D"/>
</g>
<defs>
<clipPath id="clip0_367_34">
<rect width="34" height="34" fill="white"/>
</clipPath>
</defs>
</svg>
